<svg
  width="179"
  height="52"
  viewBox="0 0 179 52"
  fill="none"
  xmlns="http://www.w3.org/2000/svg"
>
<style>
.letters { fill: black; }
@media(prefers-color-scheme: dark) {
  .letters {
    fill: white;
  }
}
</style>
  <path
    d="M84.2535 36.8258V38.8332H76V30.2842H78.4964V36.836H84.2535V36.8258Z"
    class="letters"
  ></path>
  <path
    d="M93.507 37.1927H88.8097L88.0047 38.8332H85.386L89.8184 30.2842H92.539L96.9613 38.8434H94.312L93.507 37.2028V37.1927ZM92.6409 35.4299L91.1634 32.4036L89.6758 35.4299H92.6409Z"
    class="letters"
  ></path>
  <path
    d="M107.17 30.2842V34.8083C107.17 37.4066 105.397 39.1185 102.207 39.1185C99.018 39.1185 97.2349 37.4066 97.2349 34.8083V30.2842H99.7313V34.6147C99.7313 36.1024 100.567 37.0704 102.207 37.0704C103.848 37.0704 104.673 36.1024 104.673 34.6147V30.2842H107.17Z"
    class="letters"
  ></path>
  <path
    d="M119.153 30.2842V38.8434H116.962L111.44 33.2188V38.8434H109.035V30.2842H111.674L116.748 35.5114V30.2842H119.153Z"
    class="letters"
  ></path>
  <path
    d="M128.771 35.777L130.911 36.8774C130.116 38.1409 128.394 39.1089 126.081 39.1089C122.851 39.1089 120.681 37.4378 120.681 34.5542C120.681 31.6706 122.851 29.9995 126.183 29.9995C128.394 29.9995 130.106 30.9981 130.881 32.2208L128.731 33.3213C128.17 32.445 127.304 32.0272 126.153 32.0272C124.39 32.0272 123.218 32.9239 123.218 34.5542C123.218 36.1845 124.39 37.0812 126.153 37.0812C127.304 37.0812 128.18 36.694 128.782 35.777H128.771Z"
    class="letters"
  ></path>
  <path
    d="M142.262 30.2842V38.8434H139.766V35.5318H134.63V38.8434H132.134V30.2842H134.63V33.4735H139.766V30.2842H142.262Z"
    class="letters"
  ></path>
  <path
    d="M154.102 33.2697C154.102 35.2668 152.554 36.2654 150.22 36.2654H146.776V38.8332H144.28V30.2842H150.22C152.554 30.2842 154.102 31.3133 154.102 33.2799V33.2697ZM151.575 33.3207C151.575 32.4545 150.944 32.1692 150.006 32.1692H146.766V34.4517H150.006C150.934 34.4517 151.575 34.1664 151.575 33.3105V33.3207Z"
    class="letters"
  ></path>
  <path
    d="M161.551 37.1927H156.854L156.049 38.8332H153.43L157.863 30.2842H160.583L165.006 38.8434H162.356L161.551 37.2028V37.1927ZM160.685 35.4299L159.208 32.4036L157.72 35.4299H160.696H160.685Z"
    class="letters"
  ></path>
  <path
    d="M176.111 34.5536C176.111 37.2436 174.022 38.8332 170.731 38.8332H165.952V30.2842H170.731C174.022 30.2842 176.111 31.8737 176.111 34.5638V34.5536ZM173.564 34.5536C173.564 33.0353 172.372 32.2609 170.538 32.2609H168.449V36.8564H170.538C172.372 36.8564 173.564 36.0718 173.564 34.5638V34.5536Z"
    class="letters"
  ></path>
  <path
    fill-rule="evenodd"
    clip-rule="evenodd"
    d="M8 8.96552C8 4.014 12.014 0 16.9655 0H51.0345C55.986 0 60 4.014 60 8.96552V37.9411C60 43.0637 53.5176 45.2869 50.3737 41.2426L40.5448 28.5989V43.931C40.5448 48.3874 36.9322 52 32.4759 52H16.9655C12.014 52 8 47.986 8 43.0345V8.96552ZM16.9655 7.17241C15.9752 7.17241 15.1724 7.97521 15.1724 8.96552V43.0345C15.1724 44.0248 15.9752 44.8276 16.9655 44.8276H32.7448C33.24 44.8276 33.3724 44.4262 33.3724 43.931V23.3707C33.3724 18.2481 39.8548 16.0248 42.9987 20.0692L52.8276 32.7129V8.96552C52.8276 7.97521 52.9213 7.17241 51.931 7.17241H16.9655Z"
    fill="#00E0D9"
  ></path>
  <path
    fill-rule="evenodd"
    clip-rule="evenodd"
    d="M8 8.96552C8 4.014 12.014 0 16.9655 0H51.0345C55.986 0 60 4.014 60 8.96552V37.9411C60 43.0637 53.5176 45.2869 50.3737 41.2426L40.5448 28.5989V43.931C40.5448 48.3874 36.9322 52 32.4759 52H16.9655C12.014 52 8 47.986 8 43.0345V8.96552ZM16.9655 7.17241C15.9752 7.17241 15.1724 7.97521 15.1724 8.96552V43.0345C15.1724 44.0248 15.9752 44.8276 16.9655 44.8276H32.7448C33.24 44.8276 33.3724 44.4262 33.3724 43.931V23.3707C33.3724 18.2481 39.8548 16.0248 42.9987 20.0692L52.8276 32.7129V8.96552C52.8276 7.97521 52.9213 7.17241 51.931 7.17241H16.9655Z"
    fill="url(#paint0_linear_15_25)"
  ></path>
  <path
    fill-rule="evenodd"
    clip-rule="evenodd"
    d="M8 8.96552C8 4.014 12.014 0 16.9655 0H51.0345C55.986 0 60 4.014 60 8.96552V37.9411C60 43.0637 53.5176 45.2869 50.3737 41.2426L40.5448 28.5989V43.931C40.5448 48.3874 36.9322 52 32.4759 52H16.9655C12.014 52 8 47.986 8 43.0345V8.96552ZM16.9655 7.17241C15.9752 7.17241 15.1724 7.97521 15.1724 8.96552V43.0345C15.1724 44.0248 15.9752 44.8276 16.9655 44.8276H32.7448C33.24 44.8276 33.3724 44.4262 33.3724 43.931V23.3707C33.3724 18.2481 39.8548 16.0248 42.9987 20.0692L52.8276 32.7129V8.96552C52.8276 7.97521 52.9213 7.17241 51.931 7.17241H16.9655Z"
    fill="url(#paint1_linear_15_25)"
    fill-opacity="0.4"
  ></path>
  <path
    d="M51.0342 0C55.9857 0 59.9997 4.014 59.9997 8.96552V37.9411C59.9997 43.0637 53.5173 45.2869 50.3734 41.2426L40.5445 28.5989V43.931C40.5445 48.3874 36.932 52 32.4756 52C32.9707 52 33.3721 51.5986 33.3721 51.1034V23.3707C33.3721 18.2481 39.8545 16.0248 42.9985 20.0692L52.8273 32.7129V1.7931C52.8273 0.8028 52.0245 0 51.0342 0Z"
    fill="#63F655"
  ></path>
  <path
    d="M93.1913 6.61792V18.1263L81.8848 6.61792H76V25.4401H81.3672V13.0712L93.6817 25.4401H98.5584V6.61792H93.1913Z"
    class="letters"
  ></path>
  <path
    d="M108.508 21.2455V17.9112H120.522V13.9048H108.508V10.8126H123.083V6.61792H103.031V25.4401H123.383V21.2455H108.508Z"
    class="letters"
  ></path>
  <path
    d="M137.645 26.0586C145.192 26.0586 150.096 22.4017 150.096 16.029C150.096 9.65631 145.192 5.99951 137.645 5.99951C130.098 5.99951 125.222 9.65631 125.222 16.029C125.222 22.4017 130.098 26.0586 137.645 26.0586ZM137.645 21.595C133.45 21.595 130.861 19.5783 130.861 16.029C130.861 12.4797 133.477 10.463 137.645 10.463C141.841 10.463 144.429 12.4797 144.429 16.029C144.429 19.5783 141.841 21.595 137.645 21.595Z"
    class="letters"
  ></path>
  <path
    d="M170.667 6.61792V18.1263L159.361 6.61792H153.476V25.4401H158.843V13.0712L171.158 25.4401H176.034V6.61792H170.667Z"
    class="letters"
  ></path>
  <defs>
    <linearGradient
      id="paint0_linear_15_25"
      x1="60"
      y1="52"
      x2="14.2759"
      y2="1.73814e-05"
      gradientUnits="userSpaceOnUse"
    >
      <stop stop-color="#62F755"></stop>
      <stop offset="1" stop-color="#8FF986" stop-opacity="0"></stop>
    </linearGradient>
    <linearGradient
      id="paint1_linear_15_25"
      x1="60"
      y1="52"
      x2="29.1138"
      y2="39.9862"
      gradientUnits="userSpaceOnUse"
    >
      <stop stop-opacity="0.9"></stop>
      <stop offset="1" stop-color="#1A1A1A" stop-opacity="0"></stop>
    </linearGradient>
  </defs>
</svg>
